<?xml version="1.0" encoding="UTF-8"?><svg id="Layer_1" xmlns="http://www.w3.org/2000/svg" viewBox="0 0 256 256"><defs><style>.cls-1{fill:#e53a91;}.cls-2{fill:#3377af;}</style></defs><path class="cls-2" d="M135.28,126.85s13.51-18,2.62-38.26c-10.88-20.25-41.25-8.25-51.75,4.13C75.11,105.72,7.38,186.86,7.38,186.86c0,0,37.51-56.27,61.88-89.64,24.39-33.38,44.64-35.25,61.51-30,16.87,5.25,35.63,39.74,4.5,59.63Z"/><path class="cls-1" d="M107.92,100.49s-20.73,8.75-21.55,31.72c-.8,22.98,31.48,27.91,46.78,22.52,16.08-5.67,115.47-41.62,115.47-41.62,0,0-60.73,29.69-98.61,46.24-37.88,16.55-56.32,7.96-68.24-5.08-11.93-13.04-10.75-52.29,26.16-53.78Z"/></svg>